<svg width="77" height="102" viewBox="0 0 77 102" xmlns="http://www.w3.org/2000/svg"><title>health library</title><g fill="none" fill-rule="evenodd"><path d="M-12-13h92.8v120H-12z"/><text font-family="Arial" font-size="11.2" fill="#005288" transform="translate(-12 -13)"><tspan x="33.813" y="98.8">Health </tspan> <tspan x="32.883" y="111.166">Library</tspan></text><path d="M71.22 18.8c-.31-2.324-.354-6.327 1.804-7.67.04-.025.068-.06.1-.09 1.766-.566 2.987-1.358 2.03-2.424L49.12.773l-42.15 5.86s-4.827.69-4.396 8.19c.234 4.08 1.514 6.085 2.634 7.07l-3.46 1.043c-.96 1.066.262 1.86 2.027 2.422.034.032.062.067.1.092 2.158 1.345 2.117 5.347 1.806 7.67-7.75 2.2-4.967 2.918-4.967 2.918l1.7.412C1.22 37.53.033 39.58.256 43.465c.43 7.497 4.395 8.015 4.395 8.015l27.584 8.965L73.866 50.36s2.783-.717-4.968-2.918c-.312-2.32-.355-6.322 1.807-7.67.04-.024.07-.06.1-.09 1.766-.565 2.986-1.357 2.027-2.422l-1.81-.547c1.207-.728 3.02-2.63 3.304-7.57.196-3.398-.69-5.39-1.717-6.56l3.576-.866S78.97 21 71.22 18.8zm-34.825-.096l7-1.44 23.66-4.86 3.526-.726c-1.125 2.06-1.078 4.882-.892 6.695.04.41.088.785.134 1.07l-3.86.96-29.86 7.428.293-9.126zM6.322 26l3.524.725 22.722 4.67 1.985.408 5.953 1.223.293 9.128-30.693-7.636-3.026-.752c.046-.285.093-.66.136-1.07.185-1.813.233-4.634-.894-6.696zm-1.37-11.54c-.042-1.994.313-3.436 1.032-4.17a1.872 1.872 0 0 1 1.366-.565c.196 0 .337.027.346.027l18.16 5.92 9.062 2.955-.297 9.192L9.203 20.69l-1.342-.376a.812.812 0 0 0-.167-.026c-.105-.007-2.618-.238-2.74-5.83zM32.3 56.464L5.54 48.96a.796.796 0 0 0-.168-.026c-.107-.007-2.62-.238-2.742-5.828-.044-1.997.313-3.438 1.03-4.172a1.876 1.876 0 0 1 1.368-.565c.196 0 .336.025.346.025l27.22 8.876-.295 9.193zm35.065-9.446c.042.41.09.785.135 1.07l-33.72 8.39.293-9.13 7.21-1.48 1.064.257 3.99-1.297 18.396-3.78 3.526-.726c-1.128 2.062-1.08 4.885-.895 6.697zm1.858-12.405c-.062 0-.123.01-.18.027l-2.544.71-24.217 6.792-.296-9.192 7.945-2.59 19.238-6.275c.002 0 1.012-.226 1.753.528.717.733 1.073 2.176 1.03 4.17-.125 5.59-2.64 5.82-2.73 5.83z" fill="#005288"/></g></svg>