<svg width="52" height="98" viewBox="0 0 52 98" xmlns="http://www.w3.org/2000/svg"><title>provider</title><g fill="none" fill-rule="evenodd"><path d="M-19.48-15h92.007v120H-19.48z"/><path d="M51.71 6.85A6.412 6.412 0 0 0 45.303.447 6.412 6.412 0 0 0 38.9 6.85c0 3.018 2.1 5.55 4.914 6.223V43.38c0 7.173-5.835 13.008-13.008 13.008-7.173 0-13.007-5.835-13.007-13.008v-2.24c7.8-.75 13.92-7.342 13.92-15.338v-12.51c0-4.73-3.207-8.72-7.56-9.92V1.937a1.49 1.49 0 0 0-1.49-1.49h-1.874a1.49 1.49 0 0 0-1.49 1.49v5.11c0 .824.667 1.492 1.49 1.492h1.874a1.49 1.49 0 0 0 1.49-1.492v-.534c2.68 1.085 4.578 3.713 4.578 6.777v10.302c-.666 1.488-4.573 9.376-12.43 9.376-7.825 0-11.762-7.897-12.43-9.378v-10.3c0-3.4 2.335-6.266 5.487-7.077v.835c0 .823.667 1.49 1.49 1.49h1.874a1.49 1.49 0 0 0 1.49-1.49v-5.11A1.49 1.49 0 0 0 12.73.445h-1.875a1.49 1.49 0 0 0-1.49 1.49v1.23C4.557 4.028.895 8.24.895 13.29v12.512c0 7.996 6.12 14.587 13.922 15.34v2.238c0 8.816 7.173 15.99 15.99 15.99 8.816 0 15.988-7.174 15.988-15.99V13.073C49.61 12.4 51.71 9.868 51.71 6.85zM4.764 30.408c2.474 2.806 6.246 5.543 11.543 5.543 5.297 0 9.068-2.737 11.543-5.543-1.833 4.58-6.314 7.826-11.542 7.826s-9.71-3.245-11.543-7.826z" fill="#005288"/><text font-family="Arial" font-size="11.2" fill="#005288" transform="translate(-20 -15)"><tspan x="30.836" y="99.231">Find a</tspan> <tspan x="25.548" y="111.597">Provider</tspan></text></g></svg>