<svg width="64" height="102" viewBox="0 0 64 102" xmlns="http://www.w3.org/2000/svg"><title>request app</title><g fill="none" fill-rule="evenodd"><path d="M-11-14h87.094v120H-11z"/><text font-family="Arial" font-size="11.2" fill="#005288" transform="translate(-11 -14)"><tspan x="14.523" y="99.765">Request an </tspan> <tspan x="11.723" y="112.131">Appointment</tspan></text><g fill="#005288"><path d="M58.74 5.11H47.123V2.388c0-1.1-.832-1.987-1.865-1.987-1.032 0-1.865.89-1.865 1.987V5.11H22.726V2.388c0-1.1-.836-1.987-1.865-1.987-1.025 0-1.863.89-1.863 1.987V5.11H7.383C6.35 5.11 5.518 6 5.518 7.1v50.16c0 1.094.832 1.987 1.865 1.987H58.74c1.027 0 1.865-.893 1.865-1.987V7.098c0-1.1-.838-1.987-1.865-1.987zM9.247 9.086h9.746v2.725c0 1.1.838 1.987 1.865 1.987 1.032 0 1.865-.89 1.865-1.987V9.085h20.664v2.725c0 1.1.835 1.987 1.865 1.987 1.033 0 1.865-.89 1.865-1.987V9.085h9.752v10.992H9.246V9.085zM56.875 55.27H9.247V24.056h47.625V55.27h.003z"/><path d="M26.962 48.402V33.45h-2.18c-.686 0-1.245-.595-1.245-1.325s.56-1.325 1.244-1.325h3.428c.685 0 1.243.595 1.243 1.325v16.277c-.002.734-.557 1.325-1.245 1.325-.686 0-1.243-.595-1.243-1.325zM40.217 49.727c-.686 0-1.243-.595-1.243-1.325V33.45h-2.18c-.686 0-1.244-.595-1.244-1.325s.558-1.325 1.243-1.325h3.427c.686 0 1.244.595 1.244 1.325v16.277c-.003.734-.562 1.325-1.247 1.325z"/></g></g></svg>