<svg width="65" height="91" viewBox="0 0 65 91" xmlns="http://www.w3.org/2000/svg"><title>story</title><g fill="none" fill-rule="evenodd"><path d="M-14-15h92.007v120H-14z"/><text font-family="Arial" font-size="11.2" fill="#005288" transform="translate(-14 -15)"><tspan x="14.036" y="104.827">Our Services</tspan></text><path d="M54.5 12H43.25V4.5A3.76 3.76 0 0 0 39.5.75h-15a3.76 3.76 0 0 0-3.75 3.75V12H9.5C5.375 12 2 15.375 2 19.5v30C2 53.625 5.375 57 9.5 57h45c4.125 0 7.5-3.375 7.5-7.5v-30c0-4.125-3.375-7.5-7.5-7.5zm-30-7.5h15V12h-15V4.5zM47 38.25H35.75V49.5h-7.5V38.25H17v-7.5h11.25V19.5h7.5v11.25H47v7.5z" fill="#005288"/></g></svg>