<svg width="64" height="84" viewBox="0 0 64 84" xmlns="http://www.w3.org/2000/svg"><title>health-library</title><g fill="none" fill-rule="evenodd"><path d="M-10-11h77.333V89H-10z"/><text font-family="Arial" font-size="9.333" fill="#D7E9F2" transform="translate(-10 -11)"><tspan x="28.177" y="82">Health </tspan> <tspan x="27.402" y="92.305">Library</tspan></text><path d="M59.35 15.5c-.26-1.937-.295-5.272 1.504-6.392.032-.02.056-.05.084-.076 1.47-.47 2.488-1.13 1.69-2.018L40.934.477 5.81 5.36s-4.022.576-3.663 6.825c.195 3.4 1.262 5.07 2.195 5.893l-2.883.87c-.8.887.217 1.548 1.688 2.017.027.026.05.056.084.076 1.797 1.122 1.763 4.457 1.504 6.394-6.457 1.834-4.14 2.43-4.14 2.43l1.417.344c-.996.9-1.986 2.608-1.8 5.846.36 6.248 3.663 6.68 3.663 6.68l22.985 7.47L61.556 41.8s2.32-.598-4.14-2.43c-.26-1.935-.296-5.27 1.506-6.394.034-.02.058-.05.085-.075 1.47-.47 2.487-1.13 1.688-2.017l-1.508-.455c1.006-.607 2.517-2.192 2.753-6.31.164-2.83-.575-4.49-1.43-5.466l2.98-.72s2.32-.598-4.14-2.432zm-29.02-.08l5.834-1.2 19.716-4.05 2.937-.605c-.938 1.718-.9 4.07-.743 5.58.034.34.073.654.11.89l-3.214.8-24.886 6.19.245-7.605zM5.267 21.5l2.937.604 18.935 3.893 1.654.338 4.96 1.02L34 34.96 8.422 28.6 5.9 27.972c.038-.238.077-.55.113-.893.154-1.51.194-3.862-.745-5.58zm-1.14-9.616c-.037-1.662.26-2.864.858-3.475.38-.39.83-.472 1.14-.472.162 0 .28.022.287.022l15.135 4.934 7.55 2.462-.247 7.66-21.182-5.94-1.118-.312a.677.677 0 0 0-.14-.022c-.087-.006-2.18-.2-2.283-4.858zm22.788 35.002l-22.3-6.252a.663.663 0 0 0-.14-.022c-.088-.006-2.183-.2-2.285-4.857-.035-1.664.263-2.865.86-3.476.382-.392.832-.473 1.14-.473.163 0 .28.022.29.022l22.682 7.396-.246 7.66zm29.222-7.872c.035.343.074.654.112.892l-28.1 6.99.244-7.606 6.008-1.235.888.215 3.325-1.08 15.33-3.15 2.938-.606c-.94 1.718-.9 4.07-.745 5.58zm1.548-10.338a.54.54 0 0 0-.15.023l-2.12.593-20.18 5.658-.247-7.658 6.62-2.16 16.03-5.228c.004 0 .845-.188 1.462.44.598.61.895 1.813.86 3.475-.105 4.657-2.2 4.85-2.276 4.856z" fill="#FFF"/></g></svg>