<svg width="36" height="83" viewBox="0 0 36 83" xmlns="http://www.w3.org/2000/svg"><title>location</title><g fill="none" fill-rule="evenodd"><path d="M-19.616-11h77.333V89h-77.333z"/><path d="M18.468.333A17.138 17.138 0 0 0 1.28 17.52c0 13.438 17.188 32.813 17.188 32.813S35.655 30.958 35.655 17.52C35.655 7.99 28 .334 18.468.334zm0 23.438c-3.438 0-6.25-2.812-6.25-6.25 0-3.437 2.812-6.25 6.25-6.25 3.437 0 6.25 2.813 6.25 6.25 0 3.438-2.813 6.25-6.25 6.25z" fill="#FFF"/><text font-family="Arial" font-size="8.769" fill="#D7E9F2" transform="translate(-19.616 -11)"><tspan x="24.148" y="82">Find a </tspan> <tspan x="19.757" y="92.287">Location</tspan></text></g></svg>