<svg width="43" height="82" viewBox="0 0 43 82" xmlns="http://www.w3.org/2000/svg"><title>provider</title><g fill="none" fill-rule="evenodd"><path d="M-16.414-12h76.672V88h-76.672z"/><path d="M42.91 6.21A5.343 5.343 0 0 0 37.574.87a5.343 5.343 0 0 0-5.337 5.337c0 2.514 1.75 4.622 4.095 5.184V36.65c0 5.977-4.86 10.84-10.84 10.84-5.976 0-10.838-4.863-10.838-10.84v-1.866c6.5-.627 11.6-6.12 11.6-12.782V11.576c0-3.94-2.67-7.266-6.298-8.266V2.114c0-.686-.556-1.242-1.242-1.242H17.15c-.686 0-1.242.556-1.242 1.242v4.26c0 .685.556 1.24 1.242 1.24h1.562c.686 0 1.242-.555 1.242-1.24v-.445a6.1 6.1 0 0 1 3.814 5.646v8.584c-.555 1.24-3.81 7.814-10.358 7.814-6.52 0-9.802-6.58-10.36-7.816v-8.582a6.1 6.1 0 0 1 4.574-5.9v.697c0 .686.556 1.242 1.242 1.242h1.56c.688 0 1.244-.556 1.244-1.242v-4.26c0-.685-.556-1.24-1.243-1.24h-1.56c-.687 0-1.243.555-1.243 1.24V3.14C3.617 3.858.566 7.366.566 11.576v10.426c0 6.663 5.1 12.155 11.6 12.782v1.866c0 7.347 5.98 13.324 13.326 13.324 7.347 0 13.324-5.977 13.324-13.324V11.394c2.344-.562 4.095-2.67 4.095-5.185zM3.79 25.84c2.063 2.337 5.205 4.618 9.62 4.618 4.414 0 7.556-2.28 9.62-4.62-1.53 3.818-5.264 6.523-9.62 6.523-4.357 0-8.09-2.704-9.62-6.52z" fill="#FFF"/><text font-family="Arial" font-size="8.769" fill="#D7E9F2" transform="translate(-16.847 -12)"><tspan x="26.481" y="82.359">Find a</tspan> <tspan x="22.341" y="92.646">Provider</tspan></text></g></svg>