<svg width="50" height="84" viewBox="0 0 50 84" xmlns="http://www.w3.org/2000/svg"><title>request-app</title><g fill="none" fill-rule="evenodd"><path d="M-10.897-12h72.58V88h-72.58z"/><text font-family="Arial" font-size="8.769" fill="#D7E9F2" transform="translate(-10.897 -12)"><tspan x="13.546" y="82.804">Request an </tspan> <tspan x="11.354" y="93.091">Appointment</tspan></text><g fill="#FFF"><path d="M47.22 3.926h-9.68v-2.27C37.54.74 36.845 0 35.984 0c-.86 0-1.554.742-1.554 1.656v2.27H17.21v-2.27C17.208.74 16.512 0 15.654 0 14.8 0 14.1.742 14.1 1.656v2.27H4.422c-.86 0-1.554.74-1.554 1.656v41.8c0 .91.694 1.656 1.554 1.656H47.22c.855 0 1.554-.745 1.554-1.656v-41.8c0-.917-.7-1.656-1.554-1.656zM5.976 7.238h8.122v2.27c0 .917.698 1.656 1.554 1.656.86 0 1.554-.742 1.554-1.656v-2.27h17.22v2.27c0 .917.696 1.656 1.554 1.656.86 0 1.554-.742 1.554-1.656v-2.27h8.126v9.16H5.976v-9.16zm39.69 38.488H5.976V19.712h39.687v26.014h.003z"/><path d="M20.738 40V27.54H18.92c-.57 0-1.036-.494-1.036-1.102 0-.61.466-1.105 1.037-1.105h2.856c.572 0 1.036.496 1.036 1.105V40c-.002.613-.464 1.106-1.038 1.106-.572 0-1.036-.496-1.036-1.105zM31.784 41.106c-.57 0-1.036-.496-1.036-1.105V27.54H28.93c-.57 0-1.035-.494-1.035-1.102 0-.61.465-1.105 1.036-1.105h2.857c.57 0 1.036.496 1.036 1.105V40c-.003.613-.468 1.106-1.04 1.106z"/></g></g></svg>