<svg width="58" height="84" viewBox="0 0 58 84" xmlns="http://www.w3.org/2000/svg"><title>share-story</title><g fill="none" fill-rule="evenodd"><path d="M-8.9-11h76.67V89H-8.9z"/><text font-family="Arial" font-size="8.769" fill="#D7E9F2" transform="translate(-9.23 -11)"><tspan x="16.97" y="82.023">Share Your </tspan> <tspan x="28.434" y="92.31">Story</tspan></text><g fill="#FFF"><path d="M36.197 25.56l-4.628 8.464c-.22.412-.658.65-1.176.604a1.167 1.167 0 0 1-1.02-.816l-3.46-11.77-4.305 14.006c-.132.497-.594.848-1.126.86h-.032c-.518 0-.98-.33-1.132-.814l-6.24-19.976-4.036 8.823c-.206.378-.447.78-.89.78H2.615C8.6 42.006 29.432 50.2 29.432 50.2s20.746-8.147 26.66-24.64H36.197z"/><path d="M7.262 21.435l5.058-11.032c.22-.433.675-.696 1.164-.642.487.05.89.38 1.03.845l5.846 19.56 4.334-14.764c.127-.52.596-.89 1.132-.897h.014a1.19 1.19 0 0 1 1.147.866l3.865 13.728 3.574-6.843c.206-.39.614-.82 1.05-.82h21.32c.545-2.183.865-4.306.865-6.748C57.66 6.783 51.255.38 43.354.38c-6.826 0-12.526 4.784-13.956 11.177C27.91 5.157 22.184.38 15.327.38 7.34.38.87 6.853.87 14.835c0 2.385.32 4.458.866 6.6h5.526z"/></g></g></svg>